<svg xmlns="http://www.w3.org/2000/svg" width="40" height="40" viewBox="0 0 1024 1024" fill="none">
    <path d="M512 0C229.2 0 0 229.2 0 512c0 226.8 146.8 418.8 350 486.4 25.6 4.8 35.2-11.2 35.2-24.8v-86.4c-141.6 30.8-171.6-68.4-171.6-68.4-23.2-58.8-56.8-74.4-56.8-74.4-46.4-31.6 3.6-30.8 3.6-30.8 51.2 3.6 78 52.8 78 52.8 45.6 78.4 119.2 55.6 148.4 42.4 4.8-33.2 17.6-55.6 32-68.4-112.8-12.8-231.6-56.4-231.6-251.6 0-55.6 19.6-101.2 52.8-136.8-5.2-13.2-22.8-67.6 5.2-140.8 0 0 43.2-13.6 141.6 52 40.8-11.6 84-17.6 127.2-17.6 43.2 0 86.4 6 127.2 17.6 98.4-65.6 141.6-52 141.6-52 28 73.2 10.4 127.6 5.2 140.8 33.2 35.6 52.8 81.2 52.8 136.8 0 195.6-119.2 238.4-232.8 251.2 18.4 16 34.8 48 34.8 97.2v144c0 13.6 9.6 29.6 35.6 24.8C877.2 930.8 1024 738.8 1024 512 1024 229.2 794.8 0 512 0z" fill="#ffffff"/>
</svg>
